<svg height="512" viewBox="0 0 128 128" width="512" xmlns="http://www.w3.org/2000/svg"><g><g><path d="m125.713 56.792-30.624-53.041a4 4 0 0 0 -5.464-1.464l-53.042 30.623a4 4 0 0 0 -1.464 5.464l10.756 18.626h21.125a4 4 0 0 1 4 4v31.974c.069-.035.141-.055.209-.094l53.041-30.624a4 4 0 0 0 1.463-5.464z" fill="#2d3c6b"/><rect fill="#fcf9f0" height="69.247" rx="4" width="69.247" x="1.751" y="57.003"/><g fill="#2d3c6b"><path d="m25.689 74.994a5.947 5.947 0 1 1 -5.947-5.947 5.948 5.948 0 0 1 5.947 5.947z"/><circle cx="53.01" cy="74.994" r="5.947"/><circle cx="36.376" cy="91.628" r="5.947"/><path d="m58.957 108.263a5.947 5.947 0 1 1 -5.947-5.947 5.946 5.946 0 0 1 5.947 5.947z"/><path d="m25.689 108.263a5.947 5.947 0 1 1 -5.947-5.947 5.947 5.947 0 0 1 5.947 5.947z"/></g><path d="m62.846 38.522a5.947 5.947 0 1 1 -8.124-2.177 5.947 5.947 0 0 1 8.124 2.177z" fill="#fcf9f0"/><path d="m85.568 44.61a5.947 5.947 0 1 1 -8.123-2.176 5.947 5.947 0 0 1 8.123 2.176z" fill="#fcf9f0"/><path d="m108.291 50.7a5.947 5.947 0 1 1 -8.123-2.177 5.948 5.948 0 0 1 8.123 2.177z" fill="#fcf9f0"/></g><g><path d="m19.742 82.69a7.7 7.7 0 1 0 -7.7-7.7 7.7 7.7 0 0 0 7.7 7.7zm0-11.893a4.2 4.2 0 1 1 -4.2 4.2 4.2 4.2 0 0 1 4.2-4.197z"/><path d="m53.01 82.69a7.7 7.7 0 1 0 -7.7-7.7 7.705 7.705 0 0 0 7.7 7.7zm0-11.893a4.2 4.2 0 1 1 -4.2 4.2 4.2 4.2 0 0 1 4.2-4.197z"/><path d="m44.073 91.628a7.7 7.7 0 1 0 -7.7 7.7 7.705 7.705 0 0 0 7.7-7.7zm-11.894 0a4.2 4.2 0 1 1 4.2 4.2 4.2 4.2 0 0 1 -4.2-4.2z"/><path d="m53.01 115.959a7.7 7.7 0 1 0 -7.7-7.7 7.705 7.705 0 0 0 7.7 7.7zm0-11.894a4.2 4.2 0 1 1 -4.2 4.2 4.2 4.2 0 0 1 4.2-4.2z"/><path d="m19.742 115.959a7.7 7.7 0 1 0 -7.7-7.7 7.7 7.7 0 0 0 7.7 7.7zm0-11.894a4.2 4.2 0 1 1 -4.2 4.2 4.2 4.2 0 0 1 4.2-4.2z"/><path d="m53.847 34.829a7.7 7.7 0 1 0 10.514 2.818 7.707 7.707 0 0 0 -10.514-2.818zm5.947 10.3a4.2 4.2 0 1 1 1.536-5.729 4.2 4.2 0 0 1 -1.536 5.73z"/><path d="m82.41 40.149a7.7 7.7 0 0 0 -3.983 14.87 7.768 7.768 0 0 0 2 .265 7.7 7.7 0 0 0 1.983-15.135zm.107 11.07a4.2 4.2 0 1 1 -2.1-7.834 4.258 4.258 0 0 1 1.093.145 4.2 4.2 0 0 1 1.012 7.689z"/><path d="m110.576 55.664a7.71 7.71 0 1 0 -3.587 4.674 7.65 7.65 0 0 0 3.587-4.674zm-3.381-.905a4.2 4.2 0 1 1 -4.06-5.285 4.249 4.249 0 0 1 1.092.144 4.2 4.2 0 0 1 2.968 5.141z"/><path d="m127.228 55.917-30.628-53.041a5.748 5.748 0 0 0 -7.85-2.105l-53.042 30.629a5.75 5.75 0 0 0 -2.1 7.854l9.24 16h-31.723a1.75 1.75 0 0 0 0 3.5h55.875a2.253 2.253 0 0 1 2.248 2.246v61.25a2.253 2.253 0 0 1 -2.248 2.25h-61.249a2.253 2.253 0 0 1 -2.25-2.25v-57a1.75 1.75 0 0 0 -3.5 0v57a5.757 5.757 0 0 0 5.75 5.75h61.249a5.756 5.756 0 0 0 5.75-5.75v-28.239l10.675-6.163a1.75 1.75 0 0 0 -1.75-3.032l-8.927 5.154v-28.97a5.756 5.756 0 0 0 -5.748-5.747h-20.115l-10.25-17.753a2.249 2.249 0 0 1 .823-3.073l53.042-30.627a2.248 2.248 0 0 1 3.073.824l30.627 53.043a2.248 2.248 0 0 1 -.824 3.073l-15.159 8.753a1.75 1.75 0 1 0 1.75 3.031l15.159-8.752a5.749 5.749 0 0 0 2.1-7.855z"/><path d="m97.851 75.477-5.815 3.357a1.75 1.75 0 1 0 1.75 3.031l5.814-3.357a1.75 1.75 0 0 0 -1.75-3.031z"/></g></g></svg>